<?xml version="1.0" encoding="utf-8"?>
<!-- Generator: Adobe Illustrator 24.0.3, SVG Export Plug-In . SVG Version: 6.00 Build 0)  -->
<!DOCTYPE svg PUBLIC "-//W3C//DTD SVG 1.1//EN" "http://www.w3.org/Graphics/SVG/1.1/DTD/svg11.dtd" [
	<!ENTITY ns_extend "http://ns.adobe.com/Extensibility/1.0/">
	<!ENTITY ns_ai "http://ns.adobe.com/AdobeIllustrator/10.0/">
	<!ENTITY ns_graphs "http://ns.adobe.com/Graphs/1.0/">
	<!ENTITY ns_vars "http://ns.adobe.com/Variables/1.0/">
	<!ENTITY ns_imrep "http://ns.adobe.com/ImageReplacement/1.0/">
	<!ENTITY ns_sfw "http://ns.adobe.com/SaveForWeb/1.0/">
	<!ENTITY ns_custom "http://ns.adobe.com/GenericCustomNamespace/1.0/">
	<!ENTITY ns_adobe_xpath "http://ns.adobe.com/XPath/1.0/">
]>
<svg version="1.1" id="general_1_" xmlns:x="&ns_extend;" xmlns:i="&ns_ai;" xmlns:graph="&ns_graphs;"
	 xmlns="http://www.w3.org/2000/svg" xmlns:xlink="http://www.w3.org/1999/xlink" x="0px" y="0px" viewBox="0 0 600 600"
	 style="enable-background:new 0 0 600 600;" xml:space="preserve">
<style type="text/css">
	.st0{fill:#4E02C6;}
	.st1{fill:#ECD3EF;}
	.st2{fill:#FA0018;}
	.st3{fill:#FFFFFF;}
</style>
<metadata>
	<sfw  xmlns="&ns_sfw;">
		<slices></slices>
		<sliceSourceBounds  bottomLeftOrigin="true" height="561.5" width="590" x="5" y="-580.8"></sliceSourceBounds>
	</sfw>
</metadata>
<g id="general">
	<path class="st0" d="M450,191.4c-5.4-15.2-14.9-42.4-40.3-64.9c-12.6-11.2-27.4-19.6-43.2-25.3c8-8.9,13.3-20,15.7-29.7
		c1.4-5.9,3.9-16.6-1.1-27.7c-7.9-17.6-28-22.1-32.7-23.1c-17-3.8-40.3-0.3-53.6,16.9c-8.8,11.3-9.4,23.7-9.6,28.2
		c0,1.2-0.3,14.1,5.8,26.9c-27.5,3-54,12.4-75.6,27.5c-23,16-35.2,34.9-43.4,47.6c-11.9,18.4-23.3,42.8-42.9,150
		c-2.7,14.6-4.9,27.6-6.8,38.8c64.1,6.4,225.7,17.9,319,29.3c3.3-16.4,6.9-35.3,8.7-45.5C459.1,285.6,466.9,239.6,450,191.4z
		 M363.1,63.6c-2.8,11-12.3,21.8-25.3,23.9c-2.2,0.3-11.1,1.8-18.9-3.5c-10.9-7.4-11-22.2-11-26.8c0-4.7,0-9.3,2.7-13.9
		c6.2-10.4,21.5-12.5,32.1-10.2c2.8,0.6,14.9,3.4,19.6,13.9C365.5,54,363.8,60.8,363.1,63.6z"/>
	<path class="st1" d="M514.7,405c0,0-1.8-3-4.5-5.7c-4.3-4.3-31-8.9-69-13.5c-93.4-11.4-254.9-22.9-319-29.3
		c-9.3-0.9-16.5-1.7-21.2-2.4c-9.8-1.4-39.8-7.8-54.3,7.9c-4.4,4.8-6.8,10.9-10.2,44.1c-3.2,30.8-4.7,46.1-3.4,50.9
		c8.2,28.6,67.2,28.5,154.4,39.6c2.8,0.4,5.5,0.7,8.4,1.1c0,0,70.5,9.4,147.2,15.7c53.5,4.4,110,7.4,147.8,4.6
		c1.2-0.1,3.7-0.3,6.6-1.7c10-5.1,10.9-19.2,13.8-39C517.5,434,524.9,420.7,514.7,405z"/>
	<path class="st2" d="M343.1,513.4c-2.2,25.5-17.8,51.9-41.5,62.2c-14.9,6.5-29.7,5.2-38,4.6c-23-1.9-38.9-11.8-44-15.2
		c-7.9-5.2-20-13.3-27.3-28.8c-7.6-16-6.1-31.6-4.7-39.6c2.8,0.4,5.5,0.7,8.4,1.1C195.9,497.7,266.4,507.1,343.1,513.4z"/>
	<path class="st2" d="M46.2,90.5c1.1,11.6,15.4,12.2,36.3,30.9c24.6,22.1,27.2,24.8,27.2,24.8c3.7,3.7,8.9,9,14.9,8.3
		c2.7-0.3,4.1-1.7,9.3-6.5c14.9-13.7,17.8-15.5,18.4-20.1c0.6-4.4-1.3-7.9-2.7-10.5c-11.4-21.1-26.8-41.1-30.8-46.4
		c-17.6-23.3-18.5-31.2-26.5-31.7c-5.9-0.4-12.4,5.4-25.3,17c-11,9.9-14.6,16.1-16.6,20.1C47.5,82.7,45.8,86.2,46.2,90.5z"/>
	<path class="st2" d="M591.6,174.9c-4.7,9.5-17.4,5.9-46.6,14.6c-10.9,3.3-21.9,6-32.9,9.1c-7.2,2-14,3.9-18.8,0.4
		c-2.3-1.7-2.7-3.5-5.2-11.3c-6.3-19.3-8.8-23.2-6.5-28.3c1.6-3.6,4.6-5.5,6.9-6.9c25.8-16.1,38.6-24.1,45.6-27.7
		c28.1-14.4,31.8-18.6,37.9-15.9c5.2,2.4,8.2,10.1,14.1,25.7c4.8,12.6,5.8,20.7,6.1,24.8C592.8,167.6,593.1,171.7,591.6,174.9z"/>
	<path class="st2" d="M10,300.9c5.9,6.2,15.6,1.3,42.5-1.3c5.6-0.5,20.3-1.8,33.7-2.8c13.5-1,21.2-1.5,24.4-6.9
		c1.6-2.7,0.5-4,0.2-13.4c-0.5-16.5,2.5-22.5-1.9-27.1c-2.2-2.3-4.9-2.9-7.3-3.3c-32.8-6.7-44.4-8.3-54.7-10.6
		c-16.7-3.7-19.1-6.8-24.9-4.3c-10.4,4.6-13.7,19.6-15.7,28.8c-2.5,11.7-1.2,21.1-0.3,27.2C7.3,294.8,7.8,298.6,10,300.9z"/>
	<path class="st2" d="M583.7,368.2c-5.6,4-11.2,1.4-39.8-6c-0.3-0.1-14.3-3.7-32.5-10c-9.1-3.1-13.9-5.1-16.8-10
		c-2.3-3.8-1.9-8.9-1.1-18.8c1.1-13.3,1.9-22.5,7.8-25.3c1.7-0.8,3-0.7,5.7-0.7c8,0.2,15.9,0.2,23.9,0.3c16.2,0.3,24.3,0.7,31.7,0.7
		c18.1-0.2,21.1-2.1,25.2,1c6.4,4.8,6.7,14.3,7.2,28.1c0.5,13.7-2.5,22.9-3.5,25.9C588.6,361.6,587.2,365.6,583.7,368.2z"/>
	<path class="st3" d="M263.6,127.2c-27.4-4.8-53.2,27.5-59.1,34.9c-2,2.5-14,17.9-19.4,41.1c-2.4,10.3-4.8,21.4,1.5,30
		c4.7,6.3,13.2,7.8,15.5,8.3c0.6,0.1,10,2,17-1.1c15.9-7,4.1-32.2,22.1-54.8c5.1-6.4,19.2-20.6,35.2-33c3.1-2.4,8.1-6.1,7.8-10.8
		C284.1,134.8,272.7,128.8,263.6,127.2z"/>
</g>
</svg>
