<?xml version="1.0" encoding="utf-8"?>
<!-- Generator: Adobe Illustrator 24.0.3, SVG Export Plug-In . SVG Version: 6.00 Build 0)  -->
<!DOCTYPE svg PUBLIC "-//W3C//DTD SVG 1.1//EN" "http://www.w3.org/Graphics/SVG/1.1/DTD/svg11.dtd" [
	<!ENTITY ns_extend "http://ns.adobe.com/Extensibility/1.0/">
	<!ENTITY ns_ai "http://ns.adobe.com/AdobeIllustrator/10.0/">
	<!ENTITY ns_graphs "http://ns.adobe.com/Graphs/1.0/">
	<!ENTITY ns_vars "http://ns.adobe.com/Variables/1.0/">
	<!ENTITY ns_imrep "http://ns.adobe.com/ImageReplacement/1.0/">
	<!ENTITY ns_sfw "http://ns.adobe.com/SaveForWeb/1.0/">
	<!ENTITY ns_custom "http://ns.adobe.com/GenericCustomNamespace/1.0/">
	<!ENTITY ns_adobe_xpath "http://ns.adobe.com/XPath/1.0/">
]>
<svg version="1.1" id="general_1_" xmlns:x="&ns_extend;" xmlns:i="&ns_ai;" xmlns:graph="&ns_graphs;"
	 xmlns="http://www.w3.org/2000/svg" xmlns:xlink="http://www.w3.org/1999/xlink" x="0px" y="0px" viewBox="0 0 600 600"
	 style="enable-background:new 0 0 600 600;" xml:space="preserve">
<style type="text/css">
	.st0{fill:#FFF200;}
	.st1{fill:#FF7300;}
	.st2{fill:#FFFFFF;}
	.st3{fill:#4E02C6;}
</style>
<metadata>
	<sfw  xmlns="&ns_sfw;">
		<slices></slices>
		<sliceSourceBounds  bottomLeftOrigin="true" height="398.9" width="592.4" x="3.4" y="-499.2"></sliceSourceBounds>
	</sfw>
</metadata>
<g id="general">
	<path class="st0" d="M29.6,156.1c-6.7,0.1-13.3,0.2-19.7,0.4c2.1-17.8,5.3-25,11.9-32.3C44.1,99.2,80,99.3,143.6,101
		c67.7,1.8,135.5,1.3,203.3,3.8c154,5.5,204.3-3.4,226.6,31.9c3.1,5,5.5,10.8,7.5,17.9c-48.2,0.1-83.2,2.9-144.5,4.7
		c-81.6,2.5-143.6,1.4-208.3,0.3C134.2,157.9,106.2,154.9,29.6,156.1z"/>
	<path class="st0" d="M579.5,479.2c-18,21-73.1,20.8-182.6,19.5c-30.3-0.4-29.4-1.1-83.6-2.1c-68.8-1.4-86.7-0.5-131-1.5
		c-109.6-2.2-140.9,7.4-160.5-15.9c-6.4-7.6-9-15.4-12.9-54.2C4.3,378.3,3,339.9,3.5,298.9c0.2-16.5,0.7-33.5,1.4-51.6
		c0.1-2.8,0.2-5.6,0.3-8.4c49.2,1.3,77-1.9,137.7-3.9c74.3-2.5,63.7,1.3,154-0.7c89.7-1.9,95.6-5.6,164.6-5.4
		c49.8,0.2,58.9,2.1,121.2,3.2c3,0.1,6,0.1,8.9,0.2c0.3,3.3,0.5,6.6,0.7,10.1c0.8,13.3,1.3,28.9,2.1,50.8c0,0.3,0,0.7,0,1
		c0.4,10.7,1.2,33.2,1.3,49.3C596.2,420.9,596.4,459.6,579.5,479.2z"/>
	<path class="st1" d="M591.6,232.3c-2.9-0.1-5.9-0.1-8.9-0.2c-62.2-1.1-71.4-3-121.2-3.2c-69-0.2-74.9,3.4-164.6,5.4
		c-90.3,1.9-79.8-1.8-154,0.7c-60.6,2-88.4,5.2-137.7,3.9c0.3-6.8,0.6-13.8,0.9-20.9c0-0.1,0-0.2,0-0.3c0.9-21.7,1.7-37.7,2.7-49.9
		c0.3-4.2,0.7-7.9,1.1-11.2c6.4-0.1,13-0.3,19.7-0.4c76.6-1.2,104.6,1.8,198.7,3.5c64.6,1.1,126.7,2.2,208.3-0.3
		c61.2-1.9,96.2-4.6,144.5-4.7c1.1,3.9,2,8.2,2.9,13c2.2,12.2,3.9,27.7,6.2,47.9c0.1,0.5,0.1,1,0.2,1.5
		C590.8,222,591.2,227,591.6,232.3z"/>
	<path class="st2" d="M492.5,308c-10,10-38.6,8.9-47.7,8.6c-54-1.6-300.1-1.9-362.1,0.1c-10,0.3-41,1.6-51.5-9.1
		c-4.5-4.6-3.4-18.2-3.5-20.2c-0.2-8.1,0.8-14.5,1.1-15.8c4.7-19,124.7-5.3,231.7-11c67.1-3.6,134.5,0.7,201.7,2.5
		c6.8,0.2,23.8,0.8,31.3,7.9c3.8,3.6,3.8,7.9,3.7,16.4C497,298.1,496.9,303.7,492.5,308z"/>
	<path class="st2" d="M312.8,391.7c-6,2.5-23.1,2.3-28.6,2.2c-32.4-0.4-180.1-0.5-217.3,0c-6,0.1-24.6,0.4-30.9-2.3
		c-2.7-1.2-2.1-4.6-2.1-5.1c-0.1-2.1,0.5-3.7,0.7-4c2.8-4.8,74.8-1.4,139.1-2.8c40.3-0.9,80.7,0.2,121,0.6c4.1,0,14.3,0.2,18.8,2
		c2.3,0.9,2.3,2,2.2,4.2C315.4,389.2,315.4,390.6,312.8,391.7z"/>
	<path class="st2" d="M312.8,416.7c-6,2.5-23.1,2.3-28.6,2.2c-32.4-0.4-180.1-0.5-217.3,0c-6,0.1-24.6,0.4-30.9-2.3
		c-2.7-1.2-2.1-4.6-2.1-5.1c-0.1-2.1,0.5-3.7,0.7-4c2.8-4.8,74.8-1.4,139.1-2.8c40.3-0.9,80.7,0.2,121,0.6c4.1,0,14.3,0.2,18.8,2
		c2.3,0.9,2.3,2,2.2,4.2C315.4,414.2,315.4,415.6,312.8,416.7z"/>
	<path class="st2" d="M226,441.8c-4.1,2.5-16,2.3-19.7,2.2c-22.3-0.4-124.1-0.5-149.7,0c-4.1,0.1-17,0.4-21.3-2.3
		c-1.9-1.2-1.4-4.6-1.4-5.1c-0.1-2.1,0.3-3.7,0.5-4c1.9-4.8,51.6-1.4,95.8-2.8c27.8-0.9,55.6,0.2,83.4,0.6c2.8,0,9.8,0.2,12.9,2
		c1.6,0.9,1.6,2,1.5,4.2C227.9,439.2,227.8,440.7,226,441.8z"/>
	<path class="st3" d="M419.4,301.9c-1.8,1.8-4.2,1.9-9.2,2.1c-5,0.2-7.7,0.3-9.4-1.5c-1.1-1.2-1.2-2.4-1-11.1
		c0.3-9.1,0.4-10.6,1.8-11.9c1.4-1.3,3.3-1.4,7.1-1.7c4.9-0.3,8.4-0.5,10.6,1.7c1.7,1.6,1.7,4.9,1.7,11.5
		C421.1,297,421.1,300.2,419.4,301.9z"/>
	<path class="st3" d="M448.1,301.6c-1.8,1.8-4.2,1.9-9.2,2.1c-5,0.2-7.7,0.3-9.4-1.5c-1.1-1.2-1.2-2.4-1-11.1
		c0.3-9.1,0.4-10.6,1.8-11.9c1.4-1.3,3.3-1.4,7.1-1.7c4.9-0.3,8.4-0.5,10.6,1.7c1.7,1.6,1.7,4.9,1.7,11.5
		C449.8,296.8,449.7,300,448.1,301.6z"/>
	<path class="st3" d="M476.8,301.6c-1.8,1.8-4.2,1.9-9.2,2.1c-5,0.2-7.7,0.3-9.4-1.5c-1.1-1.2-1.2-2.4-1-11.1
		c0.3-9.1,0.4-10.6,1.8-11.9c1.4-1.3,3.3-1.4,7.1-1.7c4.9-0.3,8.4-0.5,10.6,1.7c1.7,1.6,1.7,4.9,1.7,11.5
		C478.5,296.8,478.4,300,476.8,301.6z"/>
</g>
</svg>
