<?xml version="1.0" encoding="utf-8"?>
<!-- Generator: Adobe Illustrator 24.0.3, SVG Export Plug-In . SVG Version: 6.00 Build 0)  -->
<!DOCTYPE svg PUBLIC "-//W3C//DTD SVG 1.1//EN" "http://www.w3.org/Graphics/SVG/1.1/DTD/svg11.dtd" [
	<!ENTITY ns_extend "http://ns.adobe.com/Extensibility/1.0/">
	<!ENTITY ns_ai "http://ns.adobe.com/AdobeIllustrator/10.0/">
	<!ENTITY ns_graphs "http://ns.adobe.com/Graphs/1.0/">
	<!ENTITY ns_vars "http://ns.adobe.com/Variables/1.0/">
	<!ENTITY ns_imrep "http://ns.adobe.com/ImageReplacement/1.0/">
	<!ENTITY ns_sfw "http://ns.adobe.com/SaveForWeb/1.0/">
	<!ENTITY ns_custom "http://ns.adobe.com/GenericCustomNamespace/1.0/">
	<!ENTITY ns_adobe_xpath "http://ns.adobe.com/XPath/1.0/">
]>
<svg version="1.1" id="general_1_" xmlns:x="&ns_extend;" xmlns:i="&ns_ai;" xmlns:graph="&ns_graphs;"
	 xmlns="http://www.w3.org/2000/svg" xmlns:xlink="http://www.w3.org/1999/xlink" x="0px" y="0px" viewBox="0 0 600 600"
	 style="enable-background:new 0 0 600 600;" xml:space="preserve">
<style type="text/css">
	.st0{fill:#DD00C1;}
	.st1{fill:#04B25F;}
	.st2{fill:#FC5832;}
	.st3{fill:#ECD3EF;}
</style>
<metadata>
	<sfw  xmlns="&ns_sfw;">
		<slices></slices>
		<sliceSourceBounds  bottomLeftOrigin="true" height="588.4" width="574.4" x="12.8" y="-594.2"></sliceSourceBounds>
	</sfw>
</metadata>
<g id="general">
	<path class="st0" d="M316.3,6c-15.8-0.6-76.9-1.7-143.5,33.7c-12.5,6.6-65,35.8-106.8,97.8C5.5,227.4,10.9,322.3,15.2,357.9
		c3.8,32.2,10,84.2,47,134c36,48.6,85.7,74.2,131.3,87.5c4.5-13.1,9.1-26.3,13.5-39c8-23.2,16.1-46.4,24.1-69.5
		c-18.9-8.3-38.8-20.4-57.3-38.4c-33.3-32.5-45.2-67.9-47.9-76.2c-14.2-44.7-6.7-82-4.6-91.6c13.1-58.4,52.9-90.9,63.9-99.6
		c10.7-8.5,42.5-33,89.7-37.6c8.1-0.8,15.7-0.9,22.8-0.5c8.7-27.6,18.9-59.5,23.2-71c3.6-9.5,8.4-29.4,12.8-48.7
		C328.1,6.7,322.2,6.2,316.3,6z"/>
	<path class="st1" d="M587,286.7c-50.9,2.1-59.1,6.7-104.7,6.8c-2.3-110.8-92-157.5-184.4-166.5c17-56.5,24.7-68.1,36-119.7
		C482.5,28.5,588.3,141.4,587,286.7z"/>
	<path class="st2" d="M587,286.7c7.3,248.3-194.3,347.8-393.5,292.8c12.7-36.4,25.1-72.2,37.6-108.5
		c159.1,66.4,255.7-51.4,251.1-177.5C527.8,293.4,536.2,288.8,587,286.7z"/>
	<path class="st3" d="M279.1,68.4c-0.9,4.2-4.9,8.8-10.2,8.2c-4.3-0.4-7.7-4.2-8.2-8.2c-0.7-5.8,4.6-10.9,9.7-11
		c2.4-0.1,5.1,0.9,7,3.1C280,63.7,279.3,67.6,279.1,68.4z"/>
	<path class="st3" d="M196.6,67.2c-1.1,3.6-4.8,8.8-10.2,8.2c-4.4-0.4-7.5-4.5-8.2-8.2c-1.2-6.1,3.5-13.2,9.2-13.4
		c3.2-0.2,6.2,1.9,7.9,4.2C198,61.7,197.1,65.9,196.6,67.2z"/>
	<path class="st3" d="M154.7,144.4c-1.2,5.3-7.3,9.3-13,7.7c-4.4-1.3-7.1-5.7-7.2-9.9c-0.1-5.7,4.7-10.9,9.7-11
		c3.6-0.1,6.2,2.3,7,3.1C151.5,134.6,155.9,138.9,154.7,144.4z"/>
	<path class="st3" d="M83.9,181.4c-1.9,4.3-7,8.2-12,6.8c-4.2-1.2-6.4-5.6-6.8-9c-0.7-6.2,4.1-13.1,9.9-13.4c4.4-0.2,7.4,3.6,7.8,4
		C85.5,173.4,85.4,178,83.9,181.4z"/>
	<path class="st3" d="M99.6,256.6c-1,5.3-7,9.9-12.3,8.2c-3.9-1.2-6.1-5.4-6.2-9.2c-0.1-4.6,3.1-9.1,7.6-10.1
		c2.7-0.6,5.8,0.1,8.1,2.2C99.5,250.3,100.1,253.9,99.6,256.6z"/>
	<path class="st3" d="M50.2,340.5c-1.5,4.5-6.4,8.7-11.9,7.7c-4.1-0.7-7.7-4.2-8.2-8.2c-0.7-6,5.8-10.5,10.8-11.3
		c1.1-0.2,4.5-0.8,7.1,1.3C51.2,332.5,51.3,337.4,50.2,340.5z"/>
	<path class="st3" d="M104.2,394.8c-0.5,1-2.9,6.1-8,6.5c-4.4,0.4-8.8-2.8-9.8-6.8c-1.5-6,4.9-12.3,10.7-12.2c2.9,0.1,6.5,1.7,7.9,5
		C106.3,390.4,104.9,393.5,104.2,394.8z"/>
	<path class="st3" d="M95.2,474.8c0.3,5.2-5.4,11.5-12,10.6c-4.6-0.7-8.5-4.8-8.8-9.6c-0.3-6,4.9-10.9,9.7-11c3.3-0.1,5.9,2.1,7,3.1
		C92,468.7,95,471.3,95.2,474.8z"/>
	<path class="st3" d="M187.6,481.1c-0.2,5.1-5.2,10.5-11.4,10.1c-5.5-0.3-10.3-5-10.2-10.8c0.2-6.2,5.8-10.2,10.7-10.3
		c4.2,0,7.2,2.9,7.8,3.6C185.1,474.3,187.8,477.1,187.6,481.1z"/>
	<path class="st3" d="M184.5,551.6c-0.8,3.9-4.3,8.4-9.4,8.1c-4.8-0.3-8.2-4.7-8.4-9.1c-0.2-5,3.8-9.4,8.4-9.8
		c2.9-0.3,6,1.1,7.8,3.6C185.2,547.4,184.6,550.8,184.5,551.6z"/>
</g>
</svg>
