<svg width="341" height="176" viewBox="0 0 341 176" fill="none" xmlns="http://www.w3.org/2000/svg">
<path opacity="0.8" d="M245.946 22.8939L246.144 23.2372L246.489 23.0421L248.031 22.1705L248.383 21.9719L248.181 21.6223L247.569 20.562C248.245 19.9462 248.708 19.2262 248.907 18.4554C249.133 17.5835 249.013 16.6741 248.525 15.8282C247.902 14.7494 247.12 14.1912 246.264 13.9695C245.428 13.7531 244.569 13.87 243.808 14.0421C243.505 14.1108 243.206 14.1911 242.928 14.2659C242.857 14.285 242.787 14.3037 242.719 14.3217C242.378 14.4125 242.077 14.4869 241.812 14.525C241.544 14.5635 241.348 14.559 241.207 14.5188C241.082 14.4833 240.99 14.4181 240.915 14.289C240.789 14.0701 240.782 13.8566 240.876 13.6433C240.977 13.4152 241.207 13.16 241.605 12.9305C242.396 12.4737 243.241 12.6512 243.855 13.3405L244.178 13.7034L244.472 13.3164L245.738 11.6498L245.938 11.3867L245.717 11.1408C244.688 9.99346 243.083 9.62248 241.512 10.072L240.888 8.99015L240.688 8.64374L240.341 8.84374L238.807 9.72944L238.461 9.92944L238.661 10.2759L239.276 11.3406C238.012 12.5388 237.517 14.2724 238.374 15.7566C238.943 16.743 239.693 17.2279 240.522 17.4034C241.323 17.5732 242.166 17.4458 242.918 17.2888C243.131 17.2444 243.334 17.1984 243.529 17.1543C244.054 17.0354 244.516 16.9309 244.93 16.9109C245.203 16.8977 245.416 16.9253 245.581 16.9929C245.737 17.0567 245.87 17.164 245.98 17.3537C246.128 17.6097 246.137 17.8824 246.021 18.1561C245.899 18.4398 245.633 18.7387 245.209 18.9835C244.376 19.4649 243.242 19.2522 242.533 18.2984L242.245 17.9106L241.918 18.2663L240.56 19.7425L240.335 19.9879L240.535 20.2541C241.67 21.7591 243.566 22.3182 245.329 21.825L245.946 22.8939Z" fill="#FF4D3C" stroke="#7B2820" stroke-width="0.8"/>
<path opacity="0.8" d="M195.306 22.7112L195.203 23.094L195.585 23.2001L197.292 23.6742L197.681 23.7823L197.785 23.3923L198.102 22.2098C199.015 22.2523 199.852 22.0705 200.538 21.6664C201.314 21.2094 201.873 20.482 202.125 19.5384C202.448 18.3352 202.289 17.3872 201.841 16.6252C201.403 15.8815 200.713 15.3565 200.053 14.9405C199.79 14.7743 199.522 14.6199 199.272 14.4761C199.209 14.4395 199.146 14.4035 199.086 14.3682C198.78 14.1908 198.514 14.0307 198.3 13.8701C198.083 13.7078 197.948 13.5663 197.877 13.4379C197.814 13.325 197.795 13.2135 197.833 13.0695C197.899 12.8253 198.045 12.6696 198.262 12.5853C198.495 12.4951 198.838 12.4776 199.281 12.5965C200.164 12.8329 200.636 13.5557 200.582 14.4773L200.554 14.9625L201.036 14.8967L203.109 14.6134L203.437 14.5687L203.455 14.2387C203.538 12.6996 202.666 11.3026 201.237 10.5096L201.56 9.30305L201.664 8.91668L201.278 8.81315L199.567 8.35468L199.18 8.25115L199.077 8.63752L198.758 9.82511C197.018 9.77888 195.442 10.6544 194.998 12.3098C194.703 13.41 194.891 14.2835 195.353 14.9933C195.799 15.6802 196.485 16.1859 197.128 16.6065C197.31 16.7257 197.486 16.8369 197.655 16.9434C198.111 17.2309 198.511 17.4835 198.818 17.7623C199.02 17.9458 199.151 18.1157 199.22 18.2804C199.285 18.4357 199.304 18.606 199.247 18.8175C199.171 19.1031 198.985 19.3028 198.709 19.4137C198.422 19.5287 198.023 19.5519 197.55 19.4252C196.62 19.176 195.969 18.2242 196.142 17.0485L196.212 16.5704L195.73 16.5906L193.726 16.6745L193.393 16.6884L193.346 17.0186C193.085 18.8853 194.03 20.6214 195.625 21.5189L195.306 22.7112Z" fill="#FF4D3C" stroke="#7B2820" stroke-width="0.8"/>
<g opacity="0.5" filter="url(#filter0_dd_15_2000)">
<g clip-path="url(#clip0_15_2000)">
<rect x="28.6235" y="53.2083" width="282.936" height="114.483" rx="13.0838" fill="white"/>
<rect x="48.6584" y="73.2427" width="73.5961" height="19.6256" rx="4.49754" fill="#F6F5F5" stroke="#DEDEDE" stroke-width="0.817734"/>
<rect x="265.358" y="75.696" width="26.1675" height="14.7192" rx="4.49754" fill="#F6F5F5" stroke="#DEDEDE" stroke-width="0.817734"/>
</g>
<rect x="29.0324" y="53.6171" width="282.118" height="113.665" rx="12.6749" stroke="#DEDEDE" stroke-width="0.817734"/>
</g>
<path opacity="0.8" d="M113.53 24.3681L113.208 24.5994L113.437 24.9234L115.571 27.9529L115.803 28.2829L116.131 28.0475L118.501 26.3454C119.937 27.7174 121.55 28.5704 123.195 28.8257C124.94 29.0965 126.693 28.6898 128.263 27.5626C130.295 26.103 131.222 24.4575 131.487 22.7581C131.748 21.0797 131.354 19.3964 130.844 17.8676C130.641 17.259 130.416 16.6644 130.203 16.1017C130.148 15.957 130.094 15.8144 130.042 15.6742C129.782 14.9821 129.556 14.3497 129.415 13.778C129.274 13.2036 129.227 12.7257 129.297 12.3354C129.364 11.9623 129.541 11.655 129.89 11.4042C130.433 11.0141 131.021 10.9339 131.617 11.1286C132.227 11.3284 132.875 11.8293 133.47 12.6581C134.719 14.396 134.482 16.42 133.05 17.977L132.721 18.3346L133.135 18.5888L136.866 20.8784L137.148 21.0512L137.371 20.8073C139.486 18.4923 139.878 15.1101 138.51 11.9751L140.914 10.2485L141.239 10.0152L141.006 9.69029L138.844 6.68053L138.611 6.35564L138.286 6.58897L135.913 8.29366C133.239 5.81697 129.608 5.12279 126.818 7.12656C124.98 8.44647 124.194 9.99877 124.014 11.6326C123.838 13.2391 124.252 14.8915 124.732 16.4174C124.862 16.8296 124.995 17.2302 125.125 17.6191C125.486 18.7032 125.818 19.6963 125.951 20.5952C126.04 21.1948 126.033 21.7135 125.902 22.1554C125.773 22.5874 125.519 22.9679 125.07 23.2905C124.449 23.7365 123.739 23.8285 123.022 23.6035C122.295 23.3752 121.546 22.8132 120.908 21.9246C119.591 20.0905 119.855 17.4416 121.84 15.6343L122.198 15.309L121.811 15.0187L118.457 12.4988L118.191 12.2985L117.946 12.5246C115.105 15.1461 114.404 19.1761 115.908 22.6607L113.53 24.3681Z" fill="#FF4D3C" stroke="#7B2820" stroke-width="0.8"/>
<path opacity="0.8" d="M35.5162 26.9704L35.3511 27.3307L35.7099 27.4991L38.1236 28.632L38.4891 28.8035L38.6572 28.4365L39.4933 26.612C40.8646 26.9382 42.168 26.89 43.288 26.4628C44.5036 25.9992 45.4762 25.0987 46.0673 23.8088C46.8284 22.1479 46.825 20.7575 46.3724 19.57C45.9275 18.4024 45.0647 17.4761 44.1975 16.6989C43.8519 16.3891 43.497 16.0958 43.1631 15.8199C43.0775 15.7492 42.9933 15.6796 42.911 15.6112C42.5019 15.2711 42.1401 14.96 41.8532 14.6582C41.5643 14.3544 41.377 14.086 41.2896 13.8386C41.208 13.6077 41.2082 13.383 41.3245 13.1293C41.5099 12.7246 41.8193 12.4881 42.2259 12.4048C42.6484 12.3182 43.207 12.3926 43.8605 12.6921C45.2067 13.3089 45.7609 14.6017 45.431 16.0394L45.3223 16.513L45.808 16.5286L48.9564 16.6296L49.2867 16.6402L49.3594 16.3179C49.8614 14.0943 48.9069 11.8265 46.9533 10.3315L47.803 8.47725L47.9697 8.11361L47.606 7.94698L45.1821 6.83629L44.8185 6.66966L44.6518 7.0333L43.8138 8.86212C41.2543 8.2993 38.7215 9.17456 37.6755 11.4573C36.9845 12.9654 37.0454 14.249 37.5285 15.3643C38.0007 16.4545 38.8638 17.3532 39.7093 18.1369C39.9416 18.3522 40.1705 18.5574 40.3916 18.7555C41.0011 19.3017 41.5512 19.7947 41.9485 20.3006C42.2124 20.6365 42.3826 20.9484 42.4527 21.2495C42.5206 21.5407 42.5002 21.8438 42.3446 22.1835C42.1311 22.6494 41.7504 22.9383 41.2546 23.046C40.7482 23.1561 40.1045 23.0784 39.4052 22.7579C37.9851 22.1072 37.2247 20.4195 37.8056 18.6306L37.9549 18.171L37.4754 18.1103L34.4808 17.7309L34.15 17.689L34.0492 18.0067C33.2021 20.6771 34.1892 23.462 36.3562 25.1372L35.5162 26.9704Z" fill="#FF4D3C" stroke="#7B2820" stroke-width="0.8"/>
<g opacity="0.75" filter="url(#filter1_dd_15_2000)">
<g clip-path="url(#clip1_15_2000)">
<rect x="17.1724" y="34.4014" width="305.833" height="124.296" rx="13.0838" fill="white"/>
<rect x="37.2067" y="54.4358" width="73.5961" height="19.6256" rx="4.49754" fill="#F6F5F5" stroke="#DEDEDE" stroke-width="0.817734"/>
<rect x="276.802" y="56.8891" width="26.1675" height="14.7192" rx="4.49754" fill="#F6F5F5" stroke="#DEDEDE" stroke-width="0.817734"/>
<rect x="24.1232" y="87.9629" width="291.931" height="60.5123" rx="9.40394" fill="#F6F5F5" stroke="#DEDEDE" stroke-width="0.817734"/>
</g>
<rect x="17.5812" y="34.8102" width="305.015" height="123.478" rx="12.6749" stroke="#DEDEDE" stroke-width="0.817734"/>
</g>
<g filter="url(#filter2_ddi_15_2000)">
<g clip-path="url(#clip2_15_2000)">
<rect x="4.09033" y="15.5928" width="332" height="134.108" rx="13.0838" fill="white"/>
<rect x="24.1247" y="35.6273" width="73.5961" height="19.6256" rx="4.49754" fill="#F6F5F5" stroke="#DEDEDE" stroke-width="0.817734"/>
<rect x="289.888" y="38.0804" width="26.1675" height="14.7192" rx="4.49754" fill="#F6F5F5" stroke="#DEDEDE" stroke-width="0.817734"/>
<rect x="24.1247" y="69.1544" width="291.931" height="60.5123" rx="9.40394" fill="#F6F5F5" stroke="#DEDEDE" stroke-width="0.817734"/>
</g>
<rect x="4.4992" y="16.0016" width="331.182" height="133.291" rx="12.6749" stroke="#DEDEDE" stroke-width="0.817734"/>
</g>
<g opacity="0.8" filter="url(#filter3_d_15_2000)">
<path d="M15.731 28.4421L14.9816 26.2234C12.2995 26.6143 9.68156 25.3356 8.49938 22.8769L10.9396 21.1C11.8208 22.9652 13.7318 23.7875 15.4234 23.2162C17.0022 22.683 17.8341 21.5008 17.4204 20.2759C16.2418 16.786 8.6504 21.5384 6.66777 15.668C5.91062 13.4262 7.14515 11.1297 9.46306 9.88335L8.71372 7.66462L11.2398 6.81148L11.9969 9.05333C14.438 8.69237 16.6673 9.63884 17.7827 11.5279L15.4214 13.6128C14.5904 12.1941 13.1115 11.5349 11.5101 12.0758C10.0441 12.5709 9.34572 13.5535 9.71259 14.6397C10.7039 17.5749 18.2701 12.5992 20.4869 19.163C21.3299 21.6591 20.1414 24.0173 17.5155 25.3934L18.2649 27.6121L15.731 28.4421Z" fill="#FF4D3C"/>
<path d="M15.352 28.5701L15.4788 28.9456L15.8555 28.8223L18.3894 27.9922L18.773 27.8666L18.6438 27.4841L18.0017 25.5827C19.2236 24.88 20.1395 23.9514 20.662 22.8725C21.2292 21.7017 21.3199 20.3793 20.8659 19.035C20.2813 17.304 19.3256 16.2942 18.1821 15.7399C17.0577 15.1949 15.7945 15.112 14.6303 15.1408C14.1663 15.1522 13.7069 15.182 13.2747 15.21C13.1639 15.2172 13.0549 15.2243 12.9481 15.2309C12.4171 15.2637 11.9404 15.2853 11.5246 15.2623C11.1061 15.2392 10.7857 15.1721 10.5524 15.052C10.3347 14.9399 10.1808 14.7761 10.0916 14.5117C9.9491 14.0899 10.0123 13.7057 10.2511 13.3663C10.4994 13.0136 10.9571 12.6848 11.6381 12.4547C13.041 11.9809 14.3308 12.5422 15.0762 13.815L15.3218 14.2343L15.6861 13.9127L18.0474 11.8278L18.2951 11.6091L18.1271 11.3246C16.9681 9.36165 14.7185 8.36506 12.2714 8.61593L11.6188 6.68349L11.4908 6.30452L11.1118 6.43251L8.58572 7.28565L8.20675 7.41364L8.33475 7.79261L8.97844 9.69852C6.72923 11.0435 5.48535 13.4171 6.2888 15.796C6.81962 17.3677 7.74397 18.2604 8.86032 18.7412C9.95144 19.2111 11.1959 19.2737 12.3487 19.2646C12.6655 19.2622 12.9727 19.2546 13.2695 19.2472C14.0877 19.227 14.8262 19.2088 15.4622 19.3047C15.8847 19.3684 16.2224 19.4787 16.4799 19.6498C16.7289 19.8153 16.9219 20.0499 17.0414 20.4039C17.2054 20.8895 17.1263 21.3608 16.8393 21.7791C16.546 22.2064 16.0242 22.5911 15.2954 22.8372C13.8154 23.3371 12.1047 22.6297 11.3013 20.9291L11.0949 20.4922L10.7042 20.7767L8.26393 22.5535L7.99443 22.7497L8.13888 23.0502C9.35284 25.575 11.9807 26.9258 14.7068 26.6597L15.352 28.5701Z" stroke="#7B2820" stroke-width="0.8"/>
</g>
<g opacity="0.8" filter="url(#filter4_d_15_2000)">
<path d="M76.2109 27.3272L77.1121 25.1657C74.8389 23.6893 73.7159 21.001 74.4503 18.3735L77.4563 18.6489C76.8875 20.6318 77.7806 22.5107 79.4285 23.1978C80.9666 23.8391 82.3718 23.4999 82.8694 22.3066C84.2869 18.9067 75.447 17.4676 77.8315 11.7486C78.7421 9.56458 81.1852 8.65382 83.7491 9.2471L84.6504 7.08559L87.1113 8.11164L86.2007 10.2957C88.2729 11.6354 89.3232 13.8177 88.9146 15.9731L85.7646 15.9812C86.0765 14.3669 85.4003 12.8957 83.8403 12.2452C82.4121 11.6498 81.239 11.9271 80.7978 12.9854C79.6055 15.8448 88.5738 17.0997 85.9078 23.4941C84.8939 25.9258 82.4446 26.9133 79.5636 26.2143L78.6624 28.3758L76.2109 27.3272Z" fill="#FF4D3C"/>
<path d="M75.8417 27.1733L75.6892 27.5391L76.0536 27.695L78.5051 28.7435L78.8763 28.9023L79.0316 28.5297L79.804 26.6773C81.1857 26.9558 82.4867 26.8625 83.5913 26.3968C84.7901 25.8913 85.7309 24.9577 86.277 23.648C86.98 21.9617 86.9284 20.5724 86.435 19.4013C85.9499 18.2497 85.0556 17.3539 84.1619 16.6072C83.8058 16.3096 83.441 16.0288 83.0978 15.7646C83.0098 15.6969 82.9232 15.6302 82.8385 15.5647C82.4179 15.239 82.0455 14.9406 81.7483 14.649C81.4491 14.3554 81.2526 14.0935 81.1567 13.8493C81.0671 13.6214 81.0596 13.3968 81.167 13.1393C81.3383 12.7284 81.6393 12.4814 82.0428 12.384C82.462 12.2828 83.0229 12.3378 83.6864 12.6144C85.0531 13.1843 85.6517 14.4571 85.3718 15.9053L85.2796 16.3825L85.7656 16.3812L88.9156 16.3731L89.246 16.3722L89.3076 16.0476C89.7322 13.808 88.6997 11.5746 86.6955 10.1482L87.4805 8.26557L87.6344 7.89637L87.2652 7.74244L84.8043 6.7164L84.4351 6.56247L84.2812 6.93166L83.507 8.78842C80.9295 8.3146 78.4286 9.27708 77.4623 11.5947C76.8239 13.1258 76.9293 14.4065 77.4507 15.5045C77.9604 16.5776 78.8541 17.4459 79.7262 18.1999C79.9658 18.407 80.2017 18.6041 80.4295 18.7944C81.0576 19.3192 81.6245 19.7928 82.0391 20.2846C82.3144 20.6113 82.4954 20.917 82.5759 21.2155C82.6538 21.5042 82.6439 21.8078 82.5002 22.1527C82.3029 22.6257 81.9325 22.9276 81.4407 23.0525C80.9384 23.18 80.2925 23.1246 79.5825 22.8286C78.1407 22.2275 77.3222 20.5671 77.8408 18.7592L77.9741 18.2947L77.4928 18.2506L74.4868 17.9752L74.1548 17.9448L74.0651 18.2658C73.3109 20.9639 74.3939 23.713 76.6177 25.3121L75.8417 27.1733Z" stroke="#7B2820" stroke-width="0.8"/>
</g>
<g opacity="0.8" filter="url(#filter5_d_15_2000)">
<path d="M170.233 31.1882L171.211 28.0837C167.88 26.324 165.99 22.7431 166.678 19.0145L170.874 19.0204C170.334 21.8362 171.805 24.3253 174.172 25.0706C176.381 25.7662 178.283 25.1213 178.823 23.4074C180.361 18.5245 167.945 17.6361 170.531 9.42238C171.519 6.28563 174.787 4.71996 178.41 5.22103L179.388 2.11662L182.922 3.22959L181.934 6.36634C184.97 7.962 186.696 10.8515 186.4 13.886L182.041 14.2906C182.271 12.0172 181.151 10.0651 178.911 9.35958C176.859 8.71367 175.27 9.24403 174.792 10.7639C173.498 14.8708 186.069 15.4879 183.177 24.6718C182.077 28.1643 178.81 29.8369 174.735 29.229L173.758 32.3335L170.233 31.1882Z" fill="#FF4D3C"/>
<path d="M169.852 31.068L169.733 31.4461L170.11 31.5686L173.634 32.7139L174.018 32.8386L174.139 32.4536L175.016 29.6704C176.987 29.9077 178.79 29.6233 180.26 28.8412C181.819 28.0117 182.978 26.6351 183.558 24.792C184.31 22.4054 184.065 20.5325 183.258 19.014C182.461 17.5143 181.136 16.4033 179.812 15.4852C179.284 15.1197 178.748 14.7788 178.24 14.4561C178.109 14.3731 177.981 14.2914 177.855 14.2107C177.232 13.8124 176.672 13.4416 176.216 13.0686C175.759 12.6938 175.435 12.3394 175.257 11.9848C175.087 11.6459 175.044 11.2942 175.173 10.884C175.374 10.2462 175.797 9.82946 176.39 9.6284C176.998 9.42213 177.817 9.43463 178.791 9.74111C180.831 10.3837 181.856 12.1452 181.643 14.2503L181.594 14.7338L182.078 14.6889L186.437 14.2843L186.766 14.2538L186.798 13.9249C187.103 10.804 185.389 7.86187 182.415 6.17301L183.304 3.34973L183.424 2.96819L183.042 2.84805L179.508 1.73509L179.126 1.61495L179.006 1.99648L178.128 4.7839C174.504 4.40426 171.182 6.02579 170.15 9.30224C169.47 11.4605 169.772 13.1741 170.608 14.5894C171.429 15.9811 172.751 17.0556 174.051 17.9888C174.402 18.2409 174.749 18.4815 175.086 18.715C176.025 19.3659 176.885 19.9622 177.531 20.6016C177.962 21.0281 178.267 21.4474 178.427 21.8799C178.583 22.3028 178.608 22.7598 178.441 23.2873C178.212 24.0165 177.699 24.5159 176.99 24.7653C176.272 25.0184 175.335 25.0177 174.292 24.6891C172.138 24.0109 170.761 21.7326 171.267 19.0957L171.358 18.6211L170.874 18.6204L166.679 18.6145L166.346 18.6141L166.285 18.9419C165.583 22.7431 167.439 26.3884 170.731 28.2761L169.852 31.068Z" stroke="#7B2820" stroke-width="0.8"/>
</g>
<g opacity="0.8" filter="url(#filter6_d_15_2000)">
<path d="M326.778 25.3341L325.658 23.3942C323.217 24.2652 320.521 23.5583 318.95 21.4746L320.904 19.3494C322.081 20.9329 324.028 21.3447 325.507 20.4908C326.888 19.6938 327.446 18.4287 326.827 17.3577C325.066 14.3064 318.84 20.191 315.876 15.0584C314.745 13.0983 315.471 10.7123 317.41 9.10762L316.29 7.16773L318.499 5.89258L319.63 7.85269C321.852 7.05513 324.121 7.52353 325.522 9.08545L323.699 11.4848C322.653 10.3105 321.142 9.97046 319.742 10.7788C318.46 11.5188 317.99 12.5716 318.539 13.5214C320.02 16.0877 326.18 9.99847 329.494 15.7373C330.754 17.9197 330.083 20.3549 327.879 22.1392L328.999 24.0791L326.778 25.3341Z" fill="#FF4D3C"/>
<path d="M326.432 25.5341L326.63 25.8773L326.975 25.6823L329.196 24.4273L329.547 24.2287L329.345 23.8791L328.392 22.229C329.403 21.3404 330.085 20.2979 330.372 19.1877C330.685 17.9785 330.521 16.7165 329.84 15.5373C328.964 14.0203 327.875 13.2497 326.693 12.9437C325.532 12.6429 324.328 12.8035 323.241 13.0495C322.808 13.1476 322.382 13.262 321.982 13.3696C321.879 13.3972 321.779 13.4243 321.68 13.4505C321.188 13.5812 320.746 13.6909 320.353 13.7473C319.957 13.8042 319.646 13.8012 319.409 13.7334C319.187 13.6703 319.016 13.5485 318.885 13.3214C318.675 12.9574 318.662 12.591 318.82 12.2329C318.985 11.8598 319.349 11.4678 319.942 11.1252C321.161 10.4216 322.467 10.7029 323.401 11.7509L323.724 12.1138L324.018 11.7268L325.84 9.3274L326.04 9.06427L325.82 8.81833C324.361 7.19274 322.063 6.67913 319.814 7.37016L318.845 5.69258L318.645 5.34617L318.299 5.54617L316.09 6.82132L315.744 7.02132L315.944 7.36773L316.899 9.02198C315.046 10.71 314.326 13.1732 315.53 15.2584C316.326 16.6367 317.365 17.3032 318.507 17.5452C319.622 17.7815 320.804 17.6055 321.884 17.3801C322.182 17.318 322.469 17.253 322.746 17.1903C323.509 17.0176 324.196 16.8621 324.809 16.8325C325.216 16.8129 325.55 16.8528 325.821 16.9636C326.082 17.0705 326.304 17.2515 326.481 17.5577C326.723 17.9773 326.737 18.4284 326.549 18.87C326.356 19.3216 325.942 19.7779 325.307 20.1444C324.022 20.8866 322.294 20.5481 321.225 19.1107L320.937 18.7229L320.61 19.0786L318.655 21.2039L318.43 21.4493L318.63 21.7155C320.246 23.8576 322.965 24.6331 325.475 23.8756L326.432 25.5341Z" stroke="#7B2820" stroke-width="0.8"/>
</g>
<g opacity="0.8" filter="url(#filter7_d_15_2000)">
<path d="M277.348 22.0342L277.751 20.5313C276.124 19.7597 275.147 18.0886 275.399 16.2936L277.402 16.2097C277.203 17.5656 277.957 18.724 279.103 19.0311C280.172 19.3176 281.067 18.9703 281.29 18.1406C281.923 15.7767 275.975 15.6091 277.041 11.6328C277.447 10.1143 278.976 9.29899 280.717 9.46339L281.119 7.96053L282.83 8.419L282.423 9.93752C283.906 10.6368 284.79 11.9812 284.712 13.4366L282.638 13.7199C282.701 12.6294 282.126 11.7202 281.041 11.4296C280.048 11.1635 279.3 11.4497 279.103 12.1854C278.57 14.1736 284.587 14.2084 283.395 18.6544C282.942 20.3451 281.417 21.2115 279.458 21.0054L279.055 22.5083L277.348 22.0342Z" fill="#FF4D3C"/>
<path d="M276.962 21.9306L276.859 22.3135L277.241 22.4196L278.948 22.8937L279.337 23.0017L279.441 22.6118L279.758 21.4293C280.672 21.4717 281.508 21.2899 282.194 20.8859C282.97 20.4288 283.529 19.7015 283.782 18.7579C284.104 17.5547 283.945 16.6067 283.497 15.8447C283.059 15.101 282.369 14.576 281.71 14.1599C281.446 13.9938 281.178 13.8394 280.929 13.6956C280.865 13.659 280.803 13.623 280.742 13.5877C280.436 13.4103 280.171 13.2502 279.956 13.0896C279.74 12.9273 279.604 12.7857 279.533 12.6574C279.47 12.5444 279.451 12.433 279.489 12.289C279.555 12.0448 279.701 11.889 279.918 11.8047C280.151 11.7146 280.494 11.6971 280.938 11.816C281.82 12.0524 282.292 12.7752 282.239 13.6968L282.211 14.182L282.692 14.1162L284.766 13.8329L285.093 13.7881L285.111 13.4582C285.194 11.9191 284.322 10.5221 282.893 9.72912L283.217 8.52253L283.32 8.13616L282.934 8.03263L281.223 7.57416L280.836 7.47064L280.733 7.85701L280.415 9.04459C278.674 8.99836 277.098 9.87391 276.654 11.5293C276.359 12.6295 276.547 13.5029 277.009 14.2128C277.455 14.8997 278.141 15.4053 278.784 15.826C278.966 15.9452 279.142 16.0564 279.311 16.1628C279.767 16.4504 280.167 16.703 280.474 16.9818C280.676 17.1653 280.807 17.3352 280.876 17.4999C280.941 17.6551 280.96 17.8254 280.903 18.037C280.827 18.3225 280.641 18.5223 280.365 18.6332C280.078 18.7482 279.679 18.7714 279.206 18.6447C278.276 18.3955 277.625 17.4437 277.798 16.268L277.869 15.7898L277.386 15.8101L275.382 15.894L275.049 15.9079L275.003 16.2381C274.741 18.1048 275.686 19.8409 277.281 20.7384L276.962 21.9306Z" stroke="#7B2820" stroke-width="0.8"/>
</g>
<defs>
<filter id="filter0_dd_15_2000" x="24.5349" y="53.2083" width="291.113" height="122.66" filterUnits="userSpaceOnUse" color-interpolation-filters="sRGB">
<feFlood flood-opacity="0" result="BackgroundImageFix"/>
<feColorMatrix in="SourceAlpha" type="matrix" values="0 0 0 0 0 0 0 0 0 0 0 0 0 0 0 0 0 0 127 0" result="hardAlpha"/>
<feOffset dy="1.63547"/>
<feGaussianBlur stdDeviation="0.817734"/>
<feColorMatrix type="matrix" values="0 0 0 0 0.121569 0 0 0 0 0.156863 0 0 0 0 0.215686 0 0 0 0.02 0"/>
<feBlend mode="normal" in2="BackgroundImageFix" result="effect1_dropShadow_15_2000"/>
<feColorMatrix in="SourceAlpha" type="matrix" values="0 0 0 0 0 0 0 0 0 0 0 0 0 0 0 0 0 0 127 0" result="hardAlpha"/>
<feOffset dy="4.08867"/>
<feGaussianBlur stdDeviation="2.04434"/>
<feColorMatrix type="matrix" values="0 0 0 0 0.121569 0 0 0 0 0.156863 0 0 0 0 0.215686 0 0 0 0.02 0"/>
<feBlend mode="normal" in2="effect1_dropShadow_15_2000" result="effect2_dropShadow_15_2000"/>
<feBlend mode="normal" in="SourceGraphic" in2="effect2_dropShadow_15_2000" result="shape"/>
</filter>
<filter id="filter1_dd_15_2000" x="13.0837" y="34.4014" width="314.01" height="132.473" filterUnits="userSpaceOnUse" color-interpolation-filters="sRGB">
<feFlood flood-opacity="0" result="BackgroundImageFix"/>
<feColorMatrix in="SourceAlpha" type="matrix" values="0 0 0 0 0 0 0 0 0 0 0 0 0 0 0 0 0 0 127 0" result="hardAlpha"/>
<feOffset dy="1.63547"/>
<feGaussianBlur stdDeviation="0.817734"/>
<feColorMatrix type="matrix" values="0 0 0 0 0.121569 0 0 0 0 0.156863 0 0 0 0 0.215686 0 0 0 0.02 0"/>
<feBlend mode="normal" in2="BackgroundImageFix" result="effect1_dropShadow_15_2000"/>
<feColorMatrix in="SourceAlpha" type="matrix" values="0 0 0 0 0 0 0 0 0 0 0 0 0 0 0 0 0 0 127 0" result="hardAlpha"/>
<feOffset dy="4.08867"/>
<feGaussianBlur stdDeviation="2.04434"/>
<feColorMatrix type="matrix" values="0 0 0 0 0.121569 0 0 0 0 0.156863 0 0 0 0 0.215686 0 0 0 0.02 0"/>
<feBlend mode="normal" in2="effect1_dropShadow_15_2000" result="effect2_dropShadow_15_2000"/>
<feBlend mode="normal" in="SourceGraphic" in2="effect2_dropShadow_15_2000" result="shape"/>
</filter>
<filter id="filter2_ddi_15_2000" x="0.00165892" y="15.5928" width="340.177" height="142.286" filterUnits="userSpaceOnUse" color-interpolation-filters="sRGB">
<feFlood flood-opacity="0" result="BackgroundImageFix"/>
<feColorMatrix in="SourceAlpha" type="matrix" values="0 0 0 0 0 0 0 0 0 0 0 0 0 0 0 0 0 0 127 0" result="hardAlpha"/>
<feOffset dy="1.63547"/>
<feGaussianBlur stdDeviation="0.817734"/>
<feColorMatrix type="matrix" values="0 0 0 0 0.121569 0 0 0 0 0.156863 0 0 0 0 0.215686 0 0 0 0.02 0"/>
<feBlend mode="normal" in2="BackgroundImageFix" result="effect1_dropShadow_15_2000"/>
<feColorMatrix in="SourceAlpha" type="matrix" values="0 0 0 0 0 0 0 0 0 0 0 0 0 0 0 0 0 0 127 0" result="hardAlpha"/>
<feOffset dy="4.08867"/>
<feGaussianBlur stdDeviation="2.04434"/>
<feColorMatrix type="matrix" values="0 0 0 0 0.121569 0 0 0 0 0.156863 0 0 0 0 0.215686 0 0 0 0.02 0"/>
<feBlend mode="normal" in2="effect1_dropShadow_15_2000" result="effect2_dropShadow_15_2000"/>
<feBlend mode="normal" in="SourceGraphic" in2="effect2_dropShadow_15_2000" result="shape"/>
<feColorMatrix in="SourceAlpha" type="matrix" values="0 0 0 0 0 0 0 0 0 0 0 0 0 0 0 0 0 0 127 0" result="hardAlpha"/>
<feOffset dy="-5"/>
<feComposite in2="hardAlpha" operator="arithmetic" k2="-1" k3="1"/>
<feColorMatrix type="matrix" values="0 0 0 0 0.96 0 0 0 0 0.96 0 0 0 0 0.96 0 0 0 1 0"/>
<feBlend mode="normal" in2="shape" result="effect3_innerShadow_15_2000"/>
</filter>
<filter id="filter3_d_15_2000" x="1.64258" y="5.79761" width="23.9121" height="31.6515" filterUnits="userSpaceOnUse" color-interpolation-filters="sRGB">
<feFlood flood-opacity="0" result="BackgroundImageFix"/>
<feColorMatrix in="SourceAlpha" type="matrix" values="0 0 0 0 0 0 0 0 0 0 0 0 0 0 0 0 0 0 127 0" result="hardAlpha"/>
<feOffset dy="4"/>
<feGaussianBlur stdDeviation="2"/>
<feComposite in2="hardAlpha" operator="out"/>
<feColorMatrix type="matrix" values="0 0 0 0 0 0 0 0 0 0 0 0 0 0 0 0 0 0 0.16 0"/>
<feBlend mode="normal" in2="BackgroundImageFix" result="effect1_dropShadow_15_2000"/>
<feBlend mode="normal" in="SourceGraphic" in2="effect1_dropShadow_15_2000" result="shape"/>
</filter>
<filter id="filter4_d_15_2000" x="69.4263" y="6.03931" width="24.376" height="31.3895" filterUnits="userSpaceOnUse" color-interpolation-filters="sRGB">
<feFlood flood-opacity="0" result="BackgroundImageFix"/>
<feColorMatrix in="SourceAlpha" type="matrix" values="0 0 0 0 0 0 0 0 0 0 0 0 0 0 0 0 0 0 127 0" result="hardAlpha"/>
<feOffset dy="4"/>
<feGaussianBlur stdDeviation="2"/>
<feComposite in2="hardAlpha" operator="out"/>
<feColorMatrix type="matrix" values="0 0 0 0 0 0 0 0 0 0 0 0 0 0 0 0 0 0 0.16 0"/>
<feBlend mode="normal" in2="BackgroundImageFix" result="effect1_dropShadow_15_2000"/>
<feBlend mode="normal" in="SourceGraphic" in2="effect1_dropShadow_15_2000" result="shape"/>
</filter>
<filter id="filter5_d_15_2000" x="161.737" y="1.11328" width="29.4961" height="40.2306" filterUnits="userSpaceOnUse" color-interpolation-filters="sRGB">
<feFlood flood-opacity="0" result="BackgroundImageFix"/>
<feColorMatrix in="SourceAlpha" type="matrix" values="0 0 0 0 0 0 0 0 0 0 0 0 0 0 0 0 0 0 127 0" result="hardAlpha"/>
<feOffset dy="4"/>
<feGaussianBlur stdDeviation="2"/>
<feComposite in2="hardAlpha" operator="out"/>
<feColorMatrix type="matrix" values="0 0 0 0 0 0 0 0 0 0 0 0 0 0 0 0 0 0 0.16 0"/>
<feBlend mode="normal" in2="BackgroundImageFix" result="effect1_dropShadow_15_2000"/>
<feBlend mode="normal" in="SourceGraphic" in2="effect1_dropShadow_15_2000" result="shape"/>
</filter>
<filter id="filter6_d_15_2000" x="310.536" y="4.7998" width="24.3887" height="29.6207" filterUnits="userSpaceOnUse" color-interpolation-filters="sRGB">
<feFlood flood-opacity="0" result="BackgroundImageFix"/>
<feColorMatrix in="SourceAlpha" type="matrix" values="0 0 0 0 0 0 0 0 0 0 0 0 0 0 0 0 0 0 127 0" result="hardAlpha"/>
<feOffset dy="4"/>
<feGaussianBlur stdDeviation="2"/>
<feComposite in2="hardAlpha" operator="out"/>
<feColorMatrix type="matrix" values="0 0 0 0 0 0 0 0 0 0 0 0 0 0 0 0 0 0 0.16 0"/>
<feBlend mode="normal" in2="BackgroundImageFix" result="effect1_dropShadow_15_2000"/>
<feBlend mode="normal" in="SourceGraphic" in2="effect1_dropShadow_15_2000" result="shape"/>
</filter>
<filter id="filter7_d_15_2000" x="270.56" y="6.98071" width="18.957" height="24.5145" filterUnits="userSpaceOnUse" color-interpolation-filters="sRGB">
<feFlood flood-opacity="0" result="BackgroundImageFix"/>
<feColorMatrix in="SourceAlpha" type="matrix" values="0 0 0 0 0 0 0 0 0 0 0 0 0 0 0 0 0 0 127 0" result="hardAlpha"/>
<feOffset dy="4"/>
<feGaussianBlur stdDeviation="2"/>
<feComposite in2="hardAlpha" operator="out"/>
<feColorMatrix type="matrix" values="0 0 0 0 0 0 0 0 0 0 0 0 0 0 0 0 0 0 0.16 0"/>
<feBlend mode="normal" in2="BackgroundImageFix" result="effect1_dropShadow_15_2000"/>
<feBlend mode="normal" in="SourceGraphic" in2="effect1_dropShadow_15_2000" result="shape"/>
</filter>
<clipPath id="clip0_15_2000">
<rect x="28.6235" y="53.2083" width="282.936" height="114.483" rx="13.0838" fill="white"/>
</clipPath>
<clipPath id="clip1_15_2000">
<rect x="17.1724" y="34.4014" width="305.833" height="124.296" rx="13.0838" fill="white"/>
</clipPath>
<clipPath id="clip2_15_2000">
<rect x="4.09033" y="15.5928" width="332" height="134.108" rx="13.0838" fill="white"/>
</clipPath>
</defs>
</svg>
