<?xml version="1.0" encoding="UTF-8"?>
<svg id="Capa_2" data-name="Capa 2" xmlns="http://www.w3.org/2000/svg" viewBox="0 0 292.57 78.84">
  <defs>
    <style>
      .cls-1 {
        fill: #db2777;
      }

      .cls-2 {
        fill: #1f2937;
      }
    </style>
  </defs>
  <g id="Layer_1" data-name="Layer 1">
    <g>
      <path class="cls-2" d="m5.04,61.2V23.11h9.86l.22,7.27-1.51.29c.53-1.25,1.22-2.38,2.09-3.38.86-1.01,1.88-1.87,3.06-2.59,1.18-.72,2.41-1.28,3.71-1.69,1.3-.41,2.59-.61,3.89-.61,1.97,0,3.74.31,5.33.94,1.58.62,2.93,1.6,4.03,2.92,1.1,1.32,1.97,3.06,2.59,5.22l-1.58-.14.5-1.15c.62-1.15,1.42-2.2,2.38-3.13.96-.94,2.04-1.75,3.24-2.45,1.2-.7,2.45-1.24,3.74-1.62,1.3-.38,2.57-.58,3.82-.58,2.98,0,5.45.59,7.42,1.76,1.97,1.18,3.44,2.94,4.43,5.29.98,2.35,1.48,5.23,1.48,8.64v23.11h-10.22v-22.39c0-1.73-.24-3.14-.72-4.25-.48-1.1-1.18-1.93-2.09-2.48-.91-.55-2.09-.83-3.53-.83-1.11,0-2.12.18-3.06.54-.94.36-1.75.86-2.45,1.51-.7.65-1.24,1.4-1.62,2.27-.38.86-.58,1.83-.58,2.88v22.75h-10.22v-22.46c0-1.58-.25-2.94-.76-4.07-.5-1.13-1.21-1.98-2.12-2.56-.91-.58-2.04-.86-3.38-.86-1.1,0-2.12.18-3.06.54-.94.36-1.74.86-2.41,1.51-.67.65-1.21,1.4-1.62,2.27-.41.86-.61,1.8-.61,2.81v22.82H5.04Z"/>
      <path class="cls-2" d="m86.54,61.92c-2.78,0-5.17-.61-7.16-1.84-1.99-1.22-3.53-2.98-4.61-5.26-1.08-2.28-1.62-5.03-1.62-8.24v-23.47h10.22v21.82c0,1.73.29,3.23.86,4.5.58,1.27,1.39,2.24,2.45,2.92,1.06.67,2.35,1.01,3.89,1.01,1.1,0,2.13-.18,3.1-.54.96-.36,1.78-.88,2.45-1.55s1.2-1.46,1.58-2.38c.38-.91.58-1.9.58-2.95v-22.82h10.22v38.09h-9.72l-.36-7.85,1.87-.86c-.58,1.78-1.54,3.38-2.88,4.82-1.34,1.44-2.95,2.57-4.82,3.38s-3.89,1.22-6.05,1.22Z"/>
      <path class="cls-2" d="m133.7,61.92c-3.31,0-6.29-.85-8.93-2.56-2.64-1.7-4.72-4.03-6.23-6.98-1.51-2.95-2.27-6.37-2.27-10.26s.76-7.17,2.27-10.15c1.51-2.98,3.58-5.33,6.19-7.06,2.62-1.73,5.6-2.59,8.96-2.59,1.78,0,3.49.28,5.15.83,1.66.55,3.14,1.31,4.46,2.27,1.32.96,2.39,2.03,3.2,3.2.82,1.18,1.27,2.41,1.37,3.71l-2.59.43V7.92h10.22v53.28h-9.65l-.43-8.78,2.02.22c-.1,1.2-.53,2.35-1.3,3.46s-1.79,2.1-3.06,2.99c-1.27.89-2.71,1.58-4.32,2.09-1.61.5-3.3.76-5.08.76Zm2.3-8.5c1.92,0,3.6-.48,5.04-1.44,1.44-.96,2.57-2.28,3.38-3.96.82-1.68,1.22-3.65,1.22-5.9s-.41-4.16-1.22-5.87c-.82-1.7-1.94-3.02-3.38-3.96-1.44-.94-3.12-1.4-5.04-1.4s-3.59.47-5,1.4c-1.42.94-2.52,2.26-3.31,3.96-.79,1.71-1.19,3.66-1.19,5.87s.4,4.22,1.19,5.9c.79,1.68,1.9,3,3.31,3.96,1.42.96,3.08,1.44,5,1.44Z"/>
      <path class="cls-2" d="m180.36,61.92c-3.31,0-6.29-.85-8.93-2.56-2.64-1.7-4.72-4.03-6.23-6.98-1.51-2.95-2.27-6.37-2.27-10.26s.76-7.17,2.27-10.15c1.51-2.98,3.58-5.33,6.19-7.06,2.62-1.73,5.6-2.59,8.96-2.59,1.78,0,3.49.28,5.15.83,1.66.55,3.14,1.31,4.46,2.27,1.32.96,2.39,2.03,3.2,3.2.82,1.18,1.27,2.41,1.37,3.71l-2.59.43V7.92h10.22v53.28h-9.65l-.43-8.78,2.02.22c-.1,1.2-.53,2.35-1.3,3.46s-1.79,2.1-3.06,2.99c-1.27.89-2.71,1.58-4.32,2.09-1.61.5-3.3.76-5.08.76Zm2.3-8.5c1.92,0,3.6-.48,5.04-1.44,1.44-.96,2.57-2.28,3.38-3.96.82-1.68,1.22-3.65,1.22-5.9s-.41-4.16-1.22-5.87c-.82-1.7-1.94-3.02-3.38-3.96-1.44-.94-3.12-1.4-5.04-1.4s-3.59.47-5,1.4c-1.42.94-2.52,2.26-3.31,3.96-.79,1.71-1.19,3.66-1.19,5.87s.4,4.22,1.19,5.9c.79,1.68,1.9,3,3.31,3.96,1.42.96,3.08,1.44,5,1.44Z"/>
      <path class="cls-2" d="m212.18,61.2V7.92h10.22v53.28h-10.22Z"/>
      <path class="cls-2" d="m250.12,61.92c-4.13,0-7.73-.84-10.8-2.52-3.07-1.68-5.47-3.98-7.2-6.91-1.73-2.93-2.59-6.29-2.59-10.08,0-2.93.48-5.62,1.44-8.06.96-2.45,2.3-4.57,4.03-6.37,1.73-1.8,3.78-3.19,6.16-4.18,2.38-.98,4.96-1.48,7.74-1.48,2.59,0,4.99.47,7.2,1.4,2.21.94,4.12,2.26,5.72,3.96,1.61,1.7,2.84,3.71,3.71,6.01s1.25,4.82,1.15,7.56l-.07,3.17h-30.6l-1.66-6.26h23.83l-1.15,1.3v-1.58c-.1-1.3-.52-2.47-1.26-3.53-.75-1.06-1.69-1.87-2.84-2.45-1.15-.58-2.45-.86-3.89-.86-2.11,0-3.9.41-5.36,1.22-1.46.82-2.58,2.02-3.35,3.6s-1.15,3.5-1.15,5.76.49,4.3,1.48,5.98c.98,1.68,2.38,2.99,4.18,3.92,1.8.94,3.92,1.4,6.37,1.4,1.68,0,3.22-.26,4.61-.79,1.39-.53,2.88-1.44,4.46-2.74l4.9,6.84c-1.39,1.25-2.93,2.29-4.61,3.13-1.68.84-3.41,1.48-5.18,1.91-1.78.43-3.53.65-5.26.65Z"/>
    </g>
    <rect class="cls-1" x="276.88" y="45.83" width="13" height="13" transform="translate(120 -185.05) rotate(45)"/>
  </g>
</svg>